<?xml version="1.0" encoding="UTF-8"?>
<!DOCTYPE svg PUBLIC "-//W3C//DTD SVG 1.1//EN" "http://www.w3.org/Graphics/SVG/1.1/DTD/svg11.dtd">
<!-- Creator: CorelDRAW X7 -->
<svg xmlns="http://www.w3.org/2000/svg" xml:space="preserve" width="1535px" height="1051px" version="1.1" style="shape-rendering:geometricPrecision; text-rendering:geometricPrecision; image-rendering:optimizeQuality; fill-rule:evenodd; clip-rule:evenodd"
viewBox="0 0 1535 1051"
 xmlns:xlink="http://www.w3.org/1999/xlink"
 enable-background="new 0 0 700 700">
 <defs>
  <style type="text/css">
   <![CDATA[
    .fil0 {fill:#FB503B}
   ]]>
  </style>
 </defs>
 <g id="Layer_x0020_1">
  <metadata id="CorelCorpID_0Corel-Layer"/>
  <path class="fil0" d="M1524 491c-10,-12 -149,-187 -174,-216 -25,-30 -37,-25 -52,-22 -15,2 -192,32 -212,35 -21,4 -34,12 -21,29 11,16 127,181 153,217l-463 111 -367 -614c-14,-22 -17,-30 -51,-28 -33,1 -288,23 -306,24 -18,1 -38,10 -20,52 18,43 308,667 316,685 8,19 29,48 78,36 51,-12 225,-57 321,-82 50,91 153,276 172,303 25,35 43,29 82,17 30,-9 476,-169 496,-178 20,-8 33,-14 19,-34 -10,-15 -128,-172 -189,-255 42,-11 192,-51 208,-55 18,-5 21,-14 10,-25zm-840 171c-5,2 -264,64 -278,67 -14,3 -14,1 -15,-3 -1,-5 -308,-637 -312,-644 -4,-8 -4,-15 0,-15 4,0 244,-21 253,-22 8,0 7,2 10,7 0,0 339,585 345,596 6,10 3,13 -3,14zm730 137c5,7 8,11 -4,15 -13,5 -438,149 -447,152 -8,4 -14,5 -25,-11 -11,-15 -149,-254 -149,-254l451 -118c11,-3 15,-6 22,6 7,11 148,204 152,210zm29 -320c-10,2 -176,44 -176,44l-135 -186c-4,-5 -7,-11 2,-12 10,-2 164,-29 171,-31 7,-1 13,-3 21,9 9,11 126,159 130,165 5,6 -3,9 -13,11z"/>
 </g>
</svg>
